Coordinates
version=1
nRows=25
nColumns=21
inDegrees=yes

Units are S.I. units (second, meters, Newtons, ...)
If the header above contains a line with 'inDegrees', this indicates whether rotational values are in degrees (yes) or radians (no).

endheader
time	sternoclavicular_r2	sternoclavicular_r3	unrotscap_r3	unrotscap_r2	acromioclavicular_r2	acromioclavicular_r3	acromioclavicular_r1	unrothum_r1	unrothum_r3	unrothum_r2	elv_angle	shoulder_elev	shoulder1_r2	shoulder_rot	elbow_flexion	pro_sup	deviation	flexion	wrist_hand_r1	wrist_hand_r3
      5.05050505	     -5.76928055	      2.44359494	     -2.44359494	      5.76928055	     -1.16816195	      9.44067401	      4.24351799	     -4.24351799	     -9.44067401	      1.16816195	    -65.53735254	     23.83994882	     65.53735254	      5.74913188	    101.50835062	      0.00000000	      0.00000000	     -0.00000000	     -0.00000000	      0.00000000
      5.15151515	     -5.65901303	      2.39689083	     -2.39689083	      5.65901303	     -1.14583502	      9.26023562	      4.16241218	     -4.16241218	     -9.26023562	      1.14583502	    -65.45766932	     23.38429894	     65.45766932	      5.74836911	    100.46907466	      0.00000000	      0.00000000	     -0.00000000	     -0.00000000	      0.00000000
      5.25252525	     -5.54611071	      2.34907073	     -2.34907073	      5.54611071	     -1.12297460	      9.07548572	      4.07936837	     -4.07936837	     -9.07548572	      1.12297460	    -65.39042151	     22.91776147	     65.39042151	      5.73517771	     99.41664239	      0.00000000	      0.00000000	     -0.00000000	     -0.00000000	      0.00000000
      5.35353535	     -5.43237666	      2.30089836	     -2.30089836	      5.43237666	     -1.09994577	      8.88937480	      3.99571279	     -3.99571279	     -8.88937480	      1.09994577	    -65.31332691	     22.44778711	     65.31332691	      5.72737352	     98.37199082	      0.00000000	      0.00000000	     -0.00000000	     -0.00000000	      0.00000000
      5.45454545	     -5.31966760	      2.25316012	     -2.25316012	      5.31966760	     -1.07712448	      8.70494115	      3.91281114	     -3.91281114	     -8.70494115	      1.07712448	    -65.22317844	     21.98204824	     65.22317844	      5.71012541	     97.31242795	      0.00000000	      0.00000000	     -0.00000000	     -0.00000000	      0.00000000
      5.55555556	     -5.20599299	      2.20501292	     -2.20501292	      5.20599299	     -1.05410768	      8.51892749	      3.82919928	     -3.82919928	     -8.51892749	      1.05410768	    -65.11704305	     21.51231949	     65.11704305	      5.69890177	     96.25681732	      0.00000000	      0.00000000	     -0.00000000	     -0.00000000	      0.00000000
      5.65656566	     -5.09205044	      2.15675223	     -2.15675223	      5.09205044	     -1.03103663	      8.33247539	      3.74539034	     -3.74539034	     -8.33247539	      1.03103663	    -65.00029852	     21.04148357	     65.00029852	      5.68645451	     95.20096594	      0.00000000	      0.00000000	     -0.00000000	     -0.00000000	      0.00000000
      5.75757576	     -4.97798721	      2.10844043	     -2.10844043	      4.97798721	     -1.00794115	      8.14582582	      3.66149265	     -3.66149265	     -8.14582582	      1.00794115	    -64.87372646	     20.57014897	     64.87372646	      5.67231524	     94.14659541	      0.00000000	      0.00000000	     -0.00000000	     -0.00000000	      0.00000000
      5.85858586	     -4.86398819	      2.06015583	     -2.06015583	      4.86398819	     -0.98485867	      7.95928132	      3.57764218	     -3.57764218	     -7.95928132	      0.98485867	    -64.73731714	     20.09907971	     64.73731714	      5.65639477	     93.09537063	      0.00000000	      0.00000000	     -0.00000000	     -0.00000000	      0.00000000
      5.95959596	     -4.75024883	      2.01198120	     -2.01198120	      4.75024883	     -0.96182876	      7.77316171	      3.49398269	     -3.49398269	     -7.77316171	      0.96182876	    -64.59091452	     19.62908338	     64.59091452	      5.63868541	     92.04898151	      0.00000000	      0.00000000	     -0.00000000	     -0.00000000	      0.00000000
      6.06060606	     -4.63696696	      1.96400035	     -1.96400035	      4.63696696	     -0.93889149	      7.58779073	      3.41065971	     -3.41065971	     -7.58779073	      0.93889149	    -64.43438707	     19.16097756	     64.43438707	      5.61919583	     91.00913916	      0.00000000	      0.00000000	     -0.00000000	     -0.00000000	      0.00000000
      6.16161616	     -4.52434072	      1.91629719	     -1.91629719	      4.52434072	     -0.91608696	      7.40349261	      3.32781897	     -3.32781897	     -7.40349261	      0.91608696	    -64.26763971	     18.69558092	     64.26763971	      5.59795091	     89.97756677	      0.00000000	      0.00000000	     -0.00000000	     -0.00000000	      0.00000000
      6.26262626	     -4.41256614	      1.86895476	     -1.86895476	      4.41256614	     -0.89345489	      7.22058810	      3.24560466	     -3.24560466	     -7.22058810	      0.89345489	    -64.09062994	     18.23370352	     64.09062994	      5.57498467	     88.95599025	      0.00000000	      0.00000000	     -0.00000000	     -0.00000000	      0.00000000
      6.36363636	     -4.30183526	      1.82205438	     -1.82205438	      4.30183526	     -0.87103413	      7.03939148	      3.16415803	     -3.16415803	     -7.03939148	      0.87103413	    -63.90338687	     17.77613893	     63.90338687	      5.55032636	     87.94613018	      0.00000000	      0.00000000	     -0.00000000	     -0.00000000	      0.00000000
      6.46464646	     -4.19233671	      1.77567596	     -1.77567596	      4.19233671	     -0.84886291	      6.86021141	      3.08361781	     -3.08361781	     -6.86021141	      0.84886291	    -63.70602872	     17.32366659	     63.70602872	      5.52398073	     86.94970230	      0.00000000	      0.00000000	     -0.00000000	     -0.00000000	      0.00000000
      6.56565657	     -4.08426140	      1.72990036	     -1.72990036	      4.08426140	     -0.82697985	      6.68336028	      3.00412445	     -3.00412445	     -6.68336028	      0.82697985	    -63.49876976	     16.87707540	     63.49876976	      5.49591206	     85.96843629	      0.00000000	      0.00000000	     -0.00000000	     -0.00000000	      0.00000000
      6.66666667	     -3.97781370	      1.68481414	     -1.68481414	      3.97781370	     -0.80542636	      6.50917252	      2.92582825	     -2.92582825	     -6.50917252	      0.80542636	    -63.28190554	     16.43720984	     63.28190554	      5.46605320	     85.00411321	      0.00000000	      0.00000000	     -0.00000000	     -0.00000000	      0.00000000
      6.76767677	     -3.87322014	      1.64051325	     -1.64051325	      3.87322014	     -0.78424829	      6.33801883	      2.84889584	     -2.84889584	     -6.33801883	      0.78424829	    -63.05577259	     16.00500605	     63.05577259	      5.43435951	     84.05858760	      0.00000000	      0.00000000	     -0.00000000	     -0.00000000	      0.00000000
      6.86868687	     -3.77072049	      1.59709923	     -1.59709923	      3.77072049	     -0.76349420	      6.17029153	      2.77350358	     -2.77350358	     -6.17029153	      0.76349420	    -62.82070495	     15.58145469	     62.82070495	      5.40088562	     83.13373161	      0.00000000	      0.00000000	     -0.00000000	     -0.00000000	      0.00000000
      6.96969697	     -3.67053801	      1.55466666	     -1.55466666	      3.67053801	     -0.74320928	      6.00635599	      2.69981568	     -2.69981568	     -6.00635599	      0.74320928	    -62.57703986	     15.16747845	     62.57703986	      5.36580814	     82.23129429	      0.00000000	      0.00000000	     -0.00000000	     -0.00000000	      0.00000000
      7.07070707	     -3.57283655	      1.51328493	     -1.51328493	      3.57283655	     -0.72342672	      5.84648031	      2.62795266	     -2.62795266	     -5.84648031	      0.72342672	    -62.32521056	     14.76375429	     62.32521056	      5.32931780	     81.35272317	      0.00000000	      0.00000000	     -0.00000000	     -0.00000000	      0.00000000
      7.17171717	     -3.47617682	      1.47234443	     -1.47234443	      3.47617682	     -0.70385509	      5.68830929	      2.55685588	     -2.55685588	     -5.68830929	      0.70385509	    -62.06442822	     14.36433482	     62.06442822	      5.28385712	     80.49350524	      0.00000000	      0.00000000	     -0.00000000	     -0.00000000	      0.00000000
      7.27272727	     -3.39045529	      1.43603684	     -1.43603684	      3.39045529	     -0.68649823	      5.54803721	      2.49380454	     -2.49380454	     -5.54803721	      0.68649823	    -61.80373970	     14.01011443	     61.80373970	      5.25312645	     79.69932045	      0.00000000	      0.00000000	     -0.00000000	     -0.00000000	      0.00000000
      7.37373737	     -3.29948421	      1.39750578	     -1.39750578	      3.29948421	     -0.66807844	      5.39917491	      2.42689197	     -2.42689197	     -5.39917491	      0.66807844	    -61.51961753	     13.63420171	     61.51961753	      5.22603664	     78.88752885	      0.00000000	      0.00000000	     -0.00000000	     -0.00000000	      0.00000000
      7.47474747	     -3.21226691	      1.36056465	     -1.36056465	      3.21226691	     -0.65041871	      5.25645519	      2.36274043	     -2.36274043	     -5.25645519	      0.65041871	    -61.23641717	     13.27380044	     61.23641717	      5.17851981	     78.11439512	      0.00000000	      0.00000000	     -0.00000000	     -0.00000000	      0.00000000
